mtllib psr16-6-6-a.mtl
o psr16-6-6-a_1
v 0.5 0.42 0.005
v 0.5 0.445 0.005
v 0.5 0.42 0
v 0.5 0.45 0
v 0.5 0.445 0.795
v 0.5 0.45 0.8
v 0.5 0.42 0.795
v 0.5 0.42 0.8
v 0.76 0.42 0.795
v 0.76 0.42 0.8
v 0.763 0.42 0.795
v 0.763 0.42 0.8
v 0.765 0.419 0.795
v 0.765 0.419 0.8
v 0.767 0.417 0.8
v 0.767 0.417 0.795
v 0.769 0.415 0.795
v 0.769 0.415 0.8
v 0.77 0.413 0.795
v 0.77 0.413 0.8
v 0.77 0.41 0.8
v 0.77 0.41 0.795
v 0.77 0.04 0.795
v 0.77 0.04 0.8
v 0.77 0.037 0.8
v 0.77 0.037 0.795
v 0.769 0.035 0.795
v 0.769 0.035 0.8
v 0.767 0.033 0.795
v 0.767 0.033 0.8
v 0.765 0.031 0.8
v 0.765 0.031 0.795
v 0.763 0.03 0.795
v 0.763 0.03 0.8
v 0.76 0.03 0.795
v 0.76 0.03 0.8
v 0.5 0.03 0.005
v 0.5 0.03 0
v 0.5 0.005 0.005
v 0.5 0 0
v 0.5 0 0.8
v 0.5 0.005 0.795
v 0.5 0.03 0.8
v 0.5 0.03 0.795
v 0.77 0 0
v 0.778 0.001 0
v 0.77 0 0.8
v 0.778 0.001 0.8
v 0.785 0.004 0
v 0.785 0.004 0.8
v 0.791 0.009 0.8
v 0.791 0.009 0
v 0.796 0.015 0
v 0.796 0.015 0.8
v 0.799 0.022 0
v 0.799 0.022 0.8
v 0.8 0.03 0.8
v 0.8 0.03 0
v 0.8 0.42 0
v 0.8 0.42 0.8
v 0.799 0.428 0.8
v 0.799 0.428 0
v 0.796 0.435 0
v 0.796 0.435 0.8
v 0.791 0.441 0
v 0.791 0.441 0.8
v 0.785 0.446 0.8
v 0.785 0.446 0
v 0.778 0.449 0
v 0.778 0.449 0.8
v 0.77 0.45 0
v 0.77 0.45 0.8
v 0.76 0.42 0.005
v 0.76 0.42 0
v 0.77 0.41 0
v 0.77 0.41 0.005
v 0.77 0.413 0
v 0.77 0.413 0.005
v 0.769 0.415 0.005
v 0.769 0.415 0
v 0.767 0.417 0.005
v 0.767 0.417 0
v 0.765 0.419 0
v 0.765 0.419 0.005
v 0.763 0.42 0.005
v 0.763 0.42 0
v 0.77 0.04 0.005
v 0.77 0.04 0
v 0.76 0.03 0.005
v 0.763 0.03 0.005
v 0.76 0.03 0
v 0.763 0.03 0
v 0.765 0.031 0.005
v 0.765 0.031 0
v 0.767 0.033 0
v 0.767 0.033 0.005
v 0.769 0.035 0.005
v 0.769 0.035 0
v 0.77 0.037 0.005
v 0.77 0.037 0
v -0.5 0.445 0.005
v -0.5 0.42 0.005
v -0.5 0.03 0.005
v -0.5 0.005 0.005
v -0.769 0.035 0.005
v -0.77 0.037 0.005
v -0.76 0.03 0.005
v -0.77 0.04 0.005
v -0.77 0.41 0.005
v -0.76 0.42 0.005
v -0.763 0.03 0.005
v -0.765 0.031 0.005
v -0.767 0.033 0.005
v -0.77 0.413 0.005
v -0.769 0.415 0.005
v -0.767 0.417 0.005
v -0.765 0.419 0.005
v -0.763 0.42 0.005
v -0.5 0.42 0
v -0.5 0.45 0
v -0.5 0.445 0.795
v -0.5 0.45 0.8
v -0.5 0.42 0.8
v -0.5 0.42 0.795
v -0.76 0.42 0.795
v -0.76 0.42 0.8
v -0.76 0.42 0
v -0.77 0.41 0.8
v -0.77 0.41 0.795
v -0.77 0.413 0.8
v -0.77 0.413 0.795
v -0.769 0.415 0.795
v -0.769 0.415 0.8
v -0.767 0.417 0.795
v -0.767 0.417 0.8
v -0.765 0.419 0.8
v -0.765 0.419 0.795
v -0.763 0.42 0.795
v -0.763 0.42 0.8
v -0.763 0.42 0
v -0.765 0.419 0
v -0.767 0.417 0
v -0.769 0.415 0
v -0.77 0.413 0
v -0.77 0.41 0
v -0.77 0.04 0.795
v -0.77 0.04 0.8
v -0.77 0.04 0
v -0.76 0.03 0.795
v -0.763 0.03 0.795
v -0.76 0.03 0.8
v -0.763 0.03 0.8
v -0.765 0.031 0.795
v -0.765 0.031 0.8
v -0.767 0.033 0.8
v -0.767 0.033 0.795
v -0.769 0.035 0.795
v -0.769 0.035 0.8
v -0.77 0.037 0.795
v -0.77 0.037 0.8
v -0.77 0.037 0
v -0.769 0.035 0
v -0.767 0.033 0
v -0.765 0.031 0
v -0.763 0.03 0
v -0.76 0.03 0
v -0.5 0.03 0.795
v -0.5 0.03 0.8
v -0.5 0.03 0
v -0.5 0 0
v -0.5 0.005 0.795
v -0.5 0 0.8
v -0.77 0 0.8
v -0.778 0.001 0.8
v -0.77 0 0
v -0.778 0.001 0
v -0.785 0.004 0.8
v -0.785 0.004 0
v -0.791 0.009 0
v -0.791 0.009 0.8
v -0.796 0.015 0.8
v -0.796 0.015 0
v -0.799 0.022 0.8
v -0.799 0.022 0
v -0.8 0.03 0
v -0.8 0.03 0.8
v -0.8 0.42 0.8
v -0.8 0.42 0
v -0.799 0.428 0
v -0.799 0.428 0.8
v -0.796 0.435 0.8
v -0.796 0.435 0
v -0.791 0.441 0.8
v -0.791 0.441 0
v -0.785 0.446 0
v -0.785 0.446 0.8
v -0.778 0.449 0.8
v -0.778 0.449 0
v -0.77 0.45 0.8
v -0.77 0.45 0
vn -1 0 0
vn 0 -1 0
vn -0.259 -0.966 0
vn -0.5 -0.866 0
vn -0.707 -0.707 0
vn -0.866 -0.5 0
vn -0.966 -0.259 0
vn -0.966 0.259 0
vn -0.866 0.5 0
vn -0.707 0.707 0
vn -0.5 0.866 0
vn -0.259 0.966 0
vn 0 1 0
vn 0.259 -0.966 0
vn 0.5 -0.866 0
vn 0.707 -0.707 0
vn 0.866 -0.5 0
vn 0.966 -0.259 0
vn 1 0 0
vn 0.966 0.259 0
vn 0.866 0.5 0
vn 0.707 0.707 0
vn 0.5 0.866 0
vn 0.259 0.966 0
vn 0 0 -1
vn 0 0 1
g psr16-6-6-a_1
usemtl psr16-6-6-a_color_1
f 1//1 2//1 3//1
f 3//1 2//1 4//1
f 2//1 5//1 4//1
f 4//1 5//1 6//1
f 7//1 8//1 5//1
f 5//1 8//1 6//1
f 9//2 10//2 7//2
f 7//2 10//2 8//2
f 9//2 11//3 10//2
f 10//2 11//3 12//3
f 11//3 13//4 12//3
f 12//3 13//4 14//4
f 14//4 13//4 15//5
f 15//5 13//4 16//5
f 15//5 16//5 17//6
f 15//5 17//6 18//6
f 18//6 17//6 19//7
f 18//6 19//7 20//7
f 20//7 19//7 21//1
f 19//7 22//1 21//1
f 23//1 24//1 22//1
f 22//1 24//1 21//1
f 24//1 23//1 25//8
f 25//8 23//1 26//8
f 25//8 26//8 27//9
f 25//8 27//9 28//9
f 28//9 27//9 29//10
f 28//9 29//10 30//10
f 30//10 29//10 31//11
f 29//10 32//11 31//11
f 31//11 32//11 33//12
f 31//11 33//12 34//12
f 34//12 33//12 35//13
f 34//12 35//13 36//13
f 37//1 38//1 39//1
f 39//1 38//1 40//1
f 39//1 40//1 41//1
f 39//1 41//1 42//1
f 42//1 41//1 43//1
f 42//1 43//1 44//1
f 35//13 44//13 36//13
f 36//13 44//13 43//13
f 45//2 46//14 47//2
f 47//2 46//14 48//14
f 46//14 49//15 48//14
f 48//14 49//15 50//15
f 50//15 49//15 51//16
f 51//16 49//15 52//16
f 51//16 52//16 53//17
f 51//16 53//17 54//17
f 54//17 53//17 55//18
f 54//17 55//18 56//18
f 56//18 55//18 57//19
f 55//18 58//19 57//19
f 59//19 60//19 58//19
f 58//19 60//19 57//19
f 60//19 59//19 61//20
f 61//20 59//19 62//20
f 61//20 62//20 63//21
f 61//20 63//21 64//21
f 64//21 63//21 65//22
f 64//21 65//22 66//22
f 66//22 65//22 67//23
f 65//22 68//23 67//23
f 67//23 68//23 69//24
f 67//23 69//24 70//24
f 70//24 69//24 71//13
f 70//24 71//13 72//13
f 71//13 4//13 72//13
f 72//13 4//13 6//13
f 1//2 3//2 73//2
f 73//2 3//2 74//2
f 75//1 76//1 77//7
f 77//7 76//1 78//7
f 77//7 78//7 79//6
f 77//7 79//6 80//6
f 80//6 79//6 81//5
f 80//6 81//5 82//5
f 82//5 81//5 83//4
f 81//5 84//4 83//4
f 83//4 84//4 85//3
f 83//4 85//3 86//3
f 86//3 85//3 73//2
f 86//3 73//2 74//2
f 76//1 75//1 87//1
f 87//1 75//1 88//1
f 89//13 90//12 91//13
f 91//13 90//12 92//12
f 90//12 93//11 92//12
f 92//12 93//11 94//11
f 94//11 93//11 95//10
f 95//10 93//11 96//10
f 95//10 96//10 97//9
f 95//10 97//9 98//9
f 98//9 97//9 99//8
f 98//9 99//8 100//8
f 100//8 99//8 88//1
f 99//8 87//1 88//1
f 37//13 89//13 38//13
f 38//13 89//13 91//13
f 45//2 47//2 40//2
f 40//2 47//2 41//2
f 55//25 98//25 58//25
f 58//25 98//25 100//25
f 58//25 100//25 88//25
f 55//25 53//25 98//25
f 98//25 53//25 95//25
f 53//25 52//25 95//25
f 95//25 52//25 49//25
f 95//25 49//25 94//25
f 94//25 49//25 46//25
f 94//25 46//25 45//25
f 40//25 91//25 45//25
f 45//25 91//25 92//25
f 45//25 92//25 94//25
f 40//25 38//25 91//25
f 88//25 75//25 58//25
f 58//25 75//25 59//25
f 75//25 77//25 59//25
f 59//25 77//25 80//25
f 59//25 80//25 62//25
f 62//25 80//25 63//25
f 80//25 82//25 63//25
f 63//25 82//25 65//25
f 65//25 82//25 68//25
f 68//25 82//25 83//25
f 68//25 83//25 69//25
f 69//25 83//25 71//25
f 83//25 86//25 71//25
f 71//25 86//25 74//25
f 71//25 74//25 4//25
f 4//25 74//25 3//25
f 43//26 41//26 36//26
f 36//26 41//26 47//26
f 36//26 47//26 34//26
f 34//26 47//26 31//26
f 47//26 48//26 31//26
f 31//26 48//26 50//26
f 31//26 50//26 30//26
f 30//26 50//26 51//26
f 30//26 51//26 54//26
f 30//26 54//26 28//26
f 28//26 54//26 56//26
f 28//26 56//26 57//26
f 20//26 21//26 60//26
f 60//26 21//26 24//26
f 60//26 24//26 57//26
f 57//26 24//26 25//26
f 57//26 25//26 28//26
f 20//26 60//26 18//26
f 18//26 60//26 61//26
f 18//26 61//26 64//26
f 18//26 64//26 15//26
f 15//26 64//26 66//26
f 15//26 66//26 67//26
f 15//26 67//26 14//26
f 14//26 67//26 70//26
f 14//26 70//26 72//26
f 6//26 10//26 72//26
f 72//26 10//26 12//26
f 72//26 12//26 14//26
f 6//26 8//26 10//26
usemtl psr16-6-6-a_color_2
f 101//25 2//25 102//25
f 102//25 2//25 1//25
f 102//25 1//25 103//25
f 103//25 1//25 37//25
f 103//25 37//25 104//25
f 104//25 37//25 39//25
f 37//25 1//25 76//25
f 76//25 1//25 73//25
f 76//25 73//25 85//25
f 85//25 84//25 76//25
f 76//25 84//25 81//25
f 76//25 81//25 79//25
f 79//25 78//25 76//25
f 76//25 87//25 37//25
f 37//25 87//25 89//25
f 87//25 99//25 89//25
f 89//25 99//25 97//25
f 89//25 97//25 96//25
f 96//25 93//25 89//25
f 89//25 93//25 90//25
f 105//25 106//25 107//25
f 107//25 106//25 108//25
f 107//25 108//25 103//25
f 103//25 108//25 109//25
f 103//25 109//25 102//25
f 102//25 109//25 110//25
f 111//25 112//25 107//25
f 107//25 112//25 113//25
f 107//25 113//25 105//25
f 114//25 115//25 109//25
f 109//25 115//25 116//25
f 109//25 116//25 117//25
f 117//25 118//25 109//25
f 109//25 118//25 110//25
usemtl psr16-6-6-a_color_1
f 102//19 119//19 101//19
f 101//19 119//19 120//19
f 101//19 120//19 121//19
f 121//19 120//19 122//19
f 121//19 122//19 123//19
f 123//19 124//19 121//19
f 124//2 123//2 125//2
f 125//2 123//2 126//2
f 110//2 127//2 102//2
f 102//2 127//2 119//2
f 128//19 129//19 130//18
f 130//18 129//19 131//18
f 130//18 131//18 132//17
f 130//18 132//17 133//17
f 133//17 132//17 134//16
f 133//17 134//16 135//16
f 135//16 134//16 136//15
f 134//16 137//15 136//15
f 136//15 137//15 138//14
f 136//15 138//14 139//14
f 139//14 138//14 125//2
f 139//14 125//2 126//2
f 110//2 118//14 127//2
f 127//2 118//14 140//14
f 118//14 117//15 140//14
f 140//14 117//15 141//15
f 141//15 117//15 142//16
f 142//16 117//15 116//16
f 142//16 116//16 115//17
f 142//16 115//17 143//17
f 143//17 115//17 114//18
f 143//17 114//18 144//18
f 144//18 114//18 145//19
f 114//18 109//19 145//19
f 146//19 129//19 147//19
f 147//19 129//19 128//19
f 109//19 108//19 145//19
f 145//19 108//19 148//19
f 149//13 150//24 151//13
f 151//13 150//24 152//24
f 150//24 153//23 152//24
f 152//24 153//23 154//23
f 154//23 153//23 155//22
f 155//22 153//23 156//22
f 155//22 156//22 157//21
f 155//22 157//21 158//21
f 158//21 157//21 159//20
f 158//21 159//20 160//20
f 160//20 159//20 147//19
f 159//20 146//19 147//19
f 148//19 108//19 161//20
f 161//20 108//19 106//20
f 161//20 106//20 105//21
f 161//20 105//21 162//21
f 162//21 105//21 113//22
f 162//21 113//22 163//22
f 163//22 113//22 164//23
f 113//22 112//23 164//23
f 164//23 112//23 111//24
f 164//23 111//24 165//24
f 165//24 111//24 107//13
f 165//24 107//13 166//13
f 167//13 149//13 168//13
f 168//13 149//13 151//13
f 107//13 103//13 166//13
f 166//13 103//13 169//13
f 103//19 104//19 169//19
f 169//19 104//19 170//19
f 104//19 171//19 170//19
f 170//19 171//19 172//19
f 167//19 168//19 171//19
f 171//19 168//19 172//19
f 173//2 174//3 175//2
f 175//2 174//3 176//3
f 174//3 177//4 176//3
f 176//3 177//4 178//4
f 178//4 177//4 179//5
f 179//5 177//4 180//5
f 179//5 180//5 181//6
f 179//5 181//6 182//6
f 182//6 181//6 183//7
f 182//6 183//7 184//7
f 184//7 183//7 185//1
f 183//7 186//1 185//1
f 187//1 188//1 186//1
f 186//1 188//1 185//1
f 188//1 187//1 189//8
f 189//8 187//1 190//8
f 189//8 190//8 191//9
f 189//8 191//9 192//9
f 192//9 191//9 193//10
f 192//9 193//10 194//10
f 194//10 193//10 195//11
f 193//10 196//11 195//11
f 195//11 196//11 197//12
f 195//11 197//12 198//12
f 198//12 197//12 199//13
f 198//12 199//13 200//13
f 199//13 122//13 200//13
f 200//13 122//13 120//13
f 173//2 175//2 172//2
f 172//2 175//2 170//2
f 183//26 158//26 186//26
f 186//26 158//26 160//26
f 186//26 160//26 147//26
f 183//26 181//26 158//26
f 158//26 181//26 155//26
f 181//26 180//26 155//26
f 155//26 180//26 177//26
f 155//26 177//26 154//26
f 154//26 177//26 174//26
f 154//26 174//26 173//26
f 172//26 151//26 173//26
f 173//26 151//26 152//26
f 173//26 152//26 154//26
f 172//26 168//26 151//26
f 147//26 128//26 186//26
f 186//26 128//26 187//26
f 128//26 130//26 187//26
f 187//26 130//26 133//26
f 187//26 133//26 190//26
f 190//26 133//26 191//26
f 133//26 135//26 191//26
f 191//26 135//26 193//26
f 193//26 135//26 196//26
f 196//26 135//26 136//26
f 196//26 136//26 197//26
f 197//26 136//26 199//26
f 136//26 139//26 199//26
f 199//26 139//26 126//26
f 199//26 126//26 122//26
f 122//26 126//26 123//26
f 169//25 170//25 166//25
f 166//25 170//25 175//25
f 166//25 175//25 165//25
f 165//25 175//25 164//25
f 175//25 176//25 164//25
f 164//25 176//25 178//25
f 164//25 178//25 163//25
f 163//25 178//25 179//25
f 163//25 179//25 182//25
f 163//25 182//25 162//25
f 162//25 182//25 184//25
f 162//25 184//25 185//25
f 143//25 144//25 188//25
f 188//25 144//25 145//25
f 188//25 145//25 185//25
f 185//25 145//25 148//25
f 185//25 148//25 161//25
f 188//25 189//25 143//25
f 143//25 189//25 192//25
f 143//25 192//25 142//25
f 142//25 192//25 194//25
f 142//25 194//25 195//25
f 142//25 195//25 141//25
f 141//25 195//25 198//25
f 141//25 198//25 200//25
f 120//25 127//25 200//25
f 200//25 127//25 140//25
f 200//25 140//25 141//25
f 120//25 119//25 127//25
f 161//25 162//25 185//25
usemtl psr16-6-6-a_color_2
f 5//26 121//26 7//26
f 7//26 121//26 124//26
f 7//26 124//26 44//26
f 44//26 124//26 167//26
f 44//26 167//26 42//26
f 42//26 167//26 171//26
f 167//26 124//26 129//26
f 129//26 124//26 125//26
f 129//26 125//26 138//26
f 138//26 137//26 129//26
f 129//26 137//26 134//26
f 129//26 134//26 132//26
f 132//26 131//26 129//26
f 129//26 146//26 167//26
f 167//26 146//26 149//26
f 146//26 159//26 149//26
f 149//26 159//26 157//26
f 149//26 157//26 156//26
f 156//26 153//26 149//26
f 149//26 153//26 150//26
f 27//26 26//26 35//26
f 35//26 26//26 23//26
f 35//26 23//26 44//26
f 44//26 23//26 22//26
f 44//26 22//26 7//26
f 7//26 22//26 9//26
f 33//26 32//26 35//26
f 35//26 32//26 29//26
f 35//26 29//26 27//26
f 19//26 17//26 22//26
f 22//26 17//26 16//26
f 22//26 16//26 13//26
f 13//26 11//26 22//26
f 22//26 11//26 9//26
f 121//13 5//13 101//13
f 101//13 5//13 2//13
f 171//2 104//2 42//2
f 42//2 104//2 39//2
l 1 2
l 2 5
l 7 5
l 8 7
l 6 8
l 6 4
l 4 3
l 1 3
l 9 7
l 10 9
l 8 10
l 22 19
l 19 17
l 17 16
l 16 13
l 13 11
l 11 9
l 21 22
l 10 12
l 12 14
l 14 15
l 15 18
l 18 20
l 20 21
l 23 22
l 24 23
l 21 24
l 35 33
l 33 32
l 32 29
l 29 27
l 27 26
l 26 23
l 36 35
l 24 25
l 25 28
l 28 30
l 30 31
l 31 34
l 34 36
l 37 39
l 37 38
l 38 40
l 41 40
l 43 41
l 43 44
l 42 44
l 39 42
l 44 35
l 36 43
l 45 46
l 46 49
l 49 52
l 52 53
l 53 55
l 55 58
l 57 58
l 57 56
l 56 54
l 54 51
l 51 50
l 50 48
l 48 47
l 47 45
l 58 59
l 60 59
l 60 57
l 59 62
l 62 63
l 63 65
l 65 68
l 68 69
l 69 71
l 72 71
l 72 70
l 70 67
l 67 66
l 66 64
l 64 61
l 61 60
l 71 4
l 6 72
l 1 73
l 3 74
l 73 74
l 73 85
l 85 84
l 84 81
l 81 79
l 79 78
l 78 76
l 74 86
l 86 83
l 83 82
l 82 80
l 80 77
l 77 75
l 76 75
l 76 87
l 75 88
l 87 88
l 87 99
l 99 97
l 97 96
l 96 93
l 93 90
l 90 89
l 88 100
l 100 98
l 98 95
l 95 94
l 94 92
l 92 91
l 89 91
l 89 37
l 91 38
l 40 45
l 47 41
l 104 39
l 103 104
l 103 107
l 107 111
l 111 112
l 112 113
l 113 105
l 105 106
l 106 108
l 108 109
l 109 114
l 114 115
l 115 116
l 116 117
l 117 118
l 118 110
l 110 102
l 101 102
l 2 101
l 119 102
l 120 119
l 120 122
l 122 123
l 124 123
l 121 124
l 101 121
l 124 125
l 123 126
l 125 126
l 127 110
l 119 127
l 125 138
l 138 137
l 137 134
l 134 132
l 132 131
l 131 129
l 126 139
l 139 136
l 136 135
l 135 133
l 133 130
l 130 128
l 129 128
l 145 109
l 127 140
l 140 141
l 141 142
l 142 143
l 143 144
l 144 145
l 129 146
l 128 147
l 146 147
l 148 108
l 145 148
l 146 159
l 159 157
l 157 156
l 156 153
l 153 150
l 150 149
l 147 160
l 160 158
l 158 155
l 155 154
l 154 152
l 152 151
l 149 151
l 166 107
l 148 161
l 161 162
l 162 163
l 163 164
l 164 165
l 165 166
l 149 167
l 151 168
l 167 168
l 169 103
l 166 169
l 104 171
l 167 171
l 168 172
l 170 172
l 169 170
l 173 174
l 174 177
l 177 180
l 180 181
l 181 183
l 183 186
l 185 186
l 185 184
l 184 182
l 182 179
l 179 178
l 178 176
l 176 175
l 175 173
l 186 187
l 188 187
l 188 185
l 187 190
l 190 191
l 191 193
l 193 196
l 196 197
l 197 199
l 200 199
l 200 198
l 198 195
l 195 194
l 194 192
l 192 189
l 189 188
l 199 122
l 120 200
l 172 173
l 175 170
l 121 5
l 42 171
